<?xml version="1.0" encoding="UTF-8" standalone="no"?>
<svg
   xmlns:dc="http://purl.org/dc/elements/1.1/"
   xmlns:cc="http://creativecommons.org/ns#"
   xmlns:rdf="http://www.w3.org/1999/02/22-rdf-syntax-ns#"
   xmlns:svg="http://www.w3.org/2000/svg"
   xmlns="http://www.w3.org/2000/svg"
   viewBox="0 0 289.74374 190.70625"
   height="190.70625"
   width="289.74374"
   xml:space="preserve"
   version="1.1"
   id="svg2"><metadata
     id="metadata8"><rdf:RDF><cc:Work
         rdf:about=""><dc:format>image/svg+xml</dc:format><dc:type
           rdf:resource="http://purl.org/dc/dcmitype/StillImage" /></cc:Work></rdf:RDF></metadata><defs
     id="defs6"><pattern
       id="pattern24"
       height="4.98138"
       width="4.98138"
       y="0"
       x="0"
       patternUnits="userSpaceOnUse"
       patternTransform="translate(-118.21,-38.98)"><g
         id="g26"><path
           id="path28"
           style="fill:none;stroke:#000000;stroke-opacity:1;stroke-width:0.3985;stroke-linecap:butt;stroke-linejoin:miter;stroke-miterlimit:10;stroke-dasharray:none"
           d="M 0,0 3.08846,3.08846" /></g></pattern></defs><g
     transform="matrix(1.25,0,0,-1.25,0,190.70625)"
     id="g10"><g
       transform="translate(118.21,38.98)"
       id="g12"><g
         id="g14"><g
           id="g16"><path
             id="path18"
             style="fill:none;stroke:#000000;stroke-width:0.3985;stroke-linecap:butt;stroke-linejoin:miter;stroke-miterlimit:10;stroke-dasharray:none;stroke-opacity:1"
             d="m -7.08669,-14.17339 0,6.20318 c 0,4.40188 1.59579,11.16181 3.56432,15.09896 L -3.56432,7.04463 c 1.96854,3.93715 5.1601,3.93715 7.12864,0 L 3.52237,7.12875 C 5.4909,3.1916 7.08669,-3.56833 7.08669,-7.97021 l 0,-6.20318" /><path
             id="path20"
             style="fill:none;stroke:#000000;stroke-width:0.3985;stroke-linecap:butt;stroke-linejoin:miter;stroke-miterlimit:10;stroke-dasharray:none;stroke-opacity:1"
             d="m -14.17339,-14.17339 28.34678,0" /><g
             id="g22"><path
               id="path30"
               style="fill:url(#pattern24);fill-opacity:1;fill-rule:nonzero;stroke:none"
               d="m -14.17339,-28.3468 0,14.17341 28.34678,0 0,-14.17341 -28.34678,0 z" /></g><g
             id="g32"><path
               id="path34"
               style="fill:none;stroke:#000000;stroke-width:0.3985;stroke-linecap:butt;stroke-linejoin:miter;stroke-miterlimit:10;stroke-dasharray:2.98883, 2.98883;stroke-dashoffset:0;stroke-opacity:1"
               d="m 113.38724,0 c 0,62.62283 -50.76441,113.38724 -113.38724,113.38724 -40.50456,0 -77.94507,-21.61654 -98.19649,-56.69362 -16.75651,-29.02158 -19.81543,-63.98447 -8.35318,-95.47495" /></g><g
             id="g36"><g
               id="g38"><g
                 id="g40"><path
                   id="path42"
                   style="fill:none;stroke:#000000;stroke-width:0.3985;stroke-linecap:butt;stroke-linejoin:miter;stroke-miterlimit:10;stroke-dasharray:2.98883, 2.98883;stroke-dashoffset:0;stroke-opacity:1"
                   d="M 0,0 0,51.02412" /></g><path
                 id="path44"
                 style="fill:none;stroke:#000000;stroke-width:0.3985;stroke-linecap:butt;stroke-linejoin:miter;stroke-miterlimit:10;stroke-dasharray:none;stroke-opacity:1"
                 d="m 0,42.52022 c -7.46191,0 -14.79787,-1.96558 -17.83257,-3.71779" /><g
                 transform="matrix(-0.86877,-0.50156,0.50156,-0.86877,-17.83257,38.80244)"
                 id="g46"><g
                   id="g48"><path
                     id="path50"
                     style="fill:none;stroke:#000000;stroke-width:0.31878999;stroke-linecap:round;stroke-linejoin:round;stroke-miterlimit:10;stroke-dasharray:none;stroke-opacity:1"
                     d="M -1.19551,1.59401 C -1.09587,0.99626 0,0.09961 0.29886,0 0,-0.09961 -1.09587,-0.99626 -1.19551,-1.59401" /></g></g><g
                 id="g52"><g
                   transform="translate(-13.835,45.736)"
                   id="g54"><g
                     id="g56"><g
                       transform="translate(-104.375,-84.716)"
                       id="g58"><text
                         id="text60"
                         style="font-variant:normal;font-weight:normal;font-size:9.96259975px;font-family:CMMI10;-inkscape-font-specification:CMMI10;writing-mode:lr-tb;fill:#000000;fill-opacity:1;fill-rule:nonzero;stroke:none"
                         transform="matrix(1,0,0,-1,104.375,84.716)"><tspan
                           id="tspan62"
                           y="0"
                           x="0">θ</tspan></text>
<g
                         transform="translate(104.375,84.716)"
                         id="g64" /></g></g><g
                     transform="translate(13.835,-45.736)"
                     id="g66" /></g></g></g><g
               id="g68"><g
                 id="g70"><path
                   id="path72"
                   style="fill:none;stroke:#000000;stroke-width:0.3985;stroke-linecap:butt;stroke-linejoin:miter;stroke-miterlimit:10;stroke-dasharray:2.98883, 2.98883;stroke-dashoffset:0;stroke-opacity:1"
                   d="M 0,0 -17.1843,-9.92133" /><g
                   id="g74" /></g><g
                 id="g76"><path
                   id="path78"
                   style="fill:none;stroke:#000000;stroke-width:0.3985;stroke-linecap:butt;stroke-linejoin:miter;stroke-miterlimit:10;stroke-dasharray:2.98883, 2.98883;stroke-dashoffset:0;stroke-opacity:1"
                   d="M -56.69362,98.19649 -73.87791,88.27516" /><g
                   id="g80" /></g><path
                 id="path82"
                 style="fill:none;stroke:#000000;stroke-width:0.3985;stroke-linecap:butt;stroke-linejoin:miter;stroke-miterlimit:10;stroke-dasharray:none;stroke-opacity:1"
                 d="m -13.318,-6.69666 -55.83437,96.7082" /><g
                 transform="matrix(0.50162,-0.86877,0.86877,0.50162,-13.318,-6.69666)"
                 id="g84"><g
                   id="g86"><path
                     id="path88"
                     style="fill:none;stroke:#000000;stroke-width:0.31878999;stroke-linecap:round;stroke-linejoin:round;stroke-miterlimit:10;stroke-dasharray:none;stroke-opacity:1"
                     d="M -1.19551,1.59401 C -1.09587,0.99626 0,0.09961 0.29886,0 0,-0.09961 -1.09587,-0.99626 -1.19551,-1.59401" /></g></g><g
                 transform="matrix(0.50162,-0.86877,0.86877,0.50162,-13.03815,-7.18135)"
                 id="g90"><g
                   id="g92"><path
                     id="path94"
                     style="fill:none;stroke:#000000;stroke-width:0.3985;stroke-linecap:square;stroke-linejoin:miter;stroke-miterlimit:10;stroke-dasharray:none;stroke-opacity:1"
                     d="m 0.09961,-2.5903 0,5.1806" /></g></g><g
                 transform="matrix(-0.50156,0.86877,-0.86877,-0.50156,-69.15237,90.01154)"
                 id="g96"><g
                   id="g98"><path
                     id="path100"
                     style="fill:none;stroke:#000000;stroke-width:0.31878999;stroke-linecap:round;stroke-linejoin:round;stroke-miterlimit:10;stroke-dasharray:none;stroke-opacity:1"
                     d="M -1.19551,1.59401 C -1.09587,0.99626 0,0.09961 0.29886,0 0,-0.09961 -1.09587,-0.99626 -1.19551,-1.59401" /></g></g><g
                 transform="matrix(-0.50156,0.86877,-0.86877,-0.50156,-69.43219,90.49622)"
                 id="g102"><g
                   id="g104"><path
                     id="path106"
                     style="fill:none;stroke:#000000;stroke-width:0.3985;stroke-linecap:square;stroke-linejoin:miter;stroke-miterlimit:10;stroke-dasharray:none;stroke-opacity:1"
                     d="m 0.09961,-2.5903 0,5.1806" /></g></g><g
                 id="g108"><g
                   id="g110"><path
                     id="path112"
                     style="fill:#ffffff;fill-opacity:1;fill-rule:nonzero;stroke:none"
                     d="m -44.81206,36.20558 7.15382,0 0,10.90367 -7.15382,0 0,-10.90367 z" /></g><g
                   transform="translate(-42.819,38.198)"
                   id="g114"><g
                     id="g116"><g
                       transform="translate(-75.391,-77.178)"
                       id="g118"><text
                         id="text120"
                         style="font-variant:normal;font-weight:normal;font-size:9.96259975px;font-family:CMMI10;-inkscape-font-specification:CMMI10;writing-mode:lr-tb;fill:#000000;fill-opacity:1;fill-rule:nonzero;stroke:none"
                         transform="matrix(1,0,0,-1,75.391,77.178)"><tspan
                           id="tspan122"
                           y="0"
                           x="0">l</tspan></text>
<g
                         transform="translate(75.391,77.178)"
                         id="g124" /></g></g><g
                     transform="translate(42.819,-38.198)"
                     id="g126" /></g></g></g><g
               id="g128"><g
                 id="g130"><path
                   id="path132"
                   style="fill:none;stroke:#000000;stroke-width:6.64307022;stroke-linecap:butt;stroke-linejoin:miter;stroke-miterlimit:10;stroke-dasharray:none;stroke-opacity:1"
                   d="M 0,0 -56.69362,98.19649" /><g
                   id="g134"><path
                     id="path136"
                     style="fill:none;stroke:#ffffff;stroke-width:4.25199986;stroke-linecap:butt;stroke-linejoin:miter;stroke-miterlimit:10;stroke-dasharray:none;stroke-opacity:1"
                     d="M 0,0 -56.69362,98.19649" /></g></g></g><g
               id="g138"><path
                 id="path140"
                 style="fill:#ffffff;fill-opacity:1;fill-rule:nonzero;stroke:#000000;stroke-width:0.3985;stroke-linecap:butt;stroke-linejoin:miter;stroke-miterlimit:10;stroke-dasharray:none;stroke-opacity:1"
                 d="M 0,4.98138 C -2.75117,4.98138 -4.98138,2.75117 -4.98138,0 -4.98138,-2.75117 -2.75117,-4.98138 0,-4.98138 2.75117,-4.98138 4.98138,-2.75117 4.98138,0 4.98138,2.75117 2.75117,4.98138 0,4.98138 Z" /></g><g
               id="g142"><path
                 id="path144"
                 style="fill:#000000;fill-opacity:1;fill-rule:nonzero;stroke:none"
                 d="M 0,1.99255 C -1.10046,1.99255 -1.99255,1.10046 -1.99255,0 -1.99255,-1.10046 -1.10046,-1.99255 0,-1.99255 1.10046,-1.99255 1.99255,-1.10046 1.99255,0 1.99255,1.10046 1.10046,1.99255 0,1.99255 Z" /></g><g
               id="g146"><g
                 id="g148"><path
                   id="path150"
                   style="fill:#000000;fill-opacity:1;fill-rule:nonzero;stroke:none"
                   d="m -57.6899,99.92209 c -0.95301,-0.55023 -1.27955,-1.76885 -0.72932,-2.72188 0.55023,-0.95303 1.76886,-1.27957 2.72188,-0.72932 0.95303,0.55023 1.27957,1.76884 0.72934,2.72187 -0.55023,0.95304 -1.76886,1.27958 -2.7219,0.72933 z" /></g></g></g></g></g></g></g></svg>